<mxfile host="app.diagrams.net" agent="Mozilla/5.0 (Windows NT 10.0; Win64; x64) AppleWebKit/537.36 (KHTML, like Gecko) Chrome/135.0.0.0 Safari/537.36" version="26.2.14">
  <diagram id="gakmx52_lV8IlieSSXrw" name="Page-1">
    <mxGraphModel dx="1188" dy="619" grid="1" gridSize="10" guides="1" tooltips="1" connect="1" arrows="1" fold="1" page="1" pageScale="1" pageWidth="850" pageHeight="1100" math="0" shadow="0">
      <root>
        <mxCell id="0" />
        <mxCell id="1" parent="0" />
        <mxCell id="ROuhm1Z8IePvhmxPEdWH-1" value="" style="endArrow=none;dashed=1;html=1;rounded=0;strokeWidth=1;fontFamily=Times New Roman;fontSize=15;fontStyle=0" edge="1" parent="1">
          <mxGeometry width="50" height="50" relative="1" as="geometry">
            <mxPoint x="210" y="561" as="sourcePoint" />
            <mxPoint x="210" y="390" as="targetPoint" />
          </mxGeometry>
        </mxCell>
        <mxCell id="ROuhm1Z8IePvhmxPEdWH-2" value="" style="endArrow=none;dashed=1;html=1;rounded=0;strokeWidth=1;fontFamily=Times New Roman;fontSize=15;fontStyle=0" edge="1" parent="1">
          <mxGeometry width="50" height="50" relative="1" as="geometry">
            <mxPoint x="310" y="561" as="sourcePoint" />
            <mxPoint x="310" y="390" as="targetPoint" />
          </mxGeometry>
        </mxCell>
        <mxCell id="ROuhm1Z8IePvhmxPEdWH-3" value="Node 1" style="text;html=1;align=center;verticalAlign=middle;resizable=0;points=[];autosize=1;strokeColor=none;fillColor=none;fontFamily=Times New Roman;fontStyle=0;fontSize=15;" vertex="1" parent="1">
          <mxGeometry x="45" y="410" width="70" height="30" as="geometry" />
        </mxCell>
        <mxCell id="ROuhm1Z8IePvhmxPEdWH-7" value="" style="endArrow=none;html=1;rounded=0;strokeWidth=2;startArrow=none;startFill=0;strokeColor=default;fontFamily=Times New Roman;fontSize=15;fontStyle=1" edge="1" parent="1">
          <mxGeometry width="50" height="50" relative="1" as="geometry">
            <mxPoint x="110" y="430" as="sourcePoint" />
            <mxPoint x="410" y="430" as="targetPoint" />
          </mxGeometry>
        </mxCell>
        <mxCell id="ROuhm1Z8IePvhmxPEdWH-8" value="" style="endArrow=none;html=1;rounded=0;strokeWidth=2;startArrow=none;startFill=0;strokeColor=default;fontFamily=Times New Roman;fontSize=15;fontStyle=0" edge="1" parent="1">
          <mxGeometry width="50" height="50" relative="1" as="geometry">
            <mxPoint x="110" y="469.71000000000004" as="sourcePoint" />
            <mxPoint x="410" y="469.71000000000004" as="targetPoint" />
          </mxGeometry>
        </mxCell>
        <mxCell id="ROuhm1Z8IePvhmxPEdWH-9" value="" style="endArrow=none;html=1;rounded=0;strokeWidth=2;startArrow=none;startFill=0;strokeColor=default;fontFamily=Times New Roman;fontSize=15;fontStyle=0" edge="1" parent="1">
          <mxGeometry width="50" height="50" relative="1" as="geometry">
            <mxPoint x="110" y="510" as="sourcePoint" />
            <mxPoint x="410" y="510" as="targetPoint" />
          </mxGeometry>
        </mxCell>
        <mxCell id="ROuhm1Z8IePvhmxPEdWH-10" value="" style="endArrow=none;html=1;rounded=0;strokeWidth=2;startArrow=none;startFill=0;strokeColor=default;fontFamily=Times New Roman;fontSize=15;fontStyle=0" edge="1" parent="1">
          <mxGeometry width="50" height="50" relative="1" as="geometry">
            <mxPoint x="110" y="550" as="sourcePoint" />
            <mxPoint x="410" y="550" as="targetPoint" />
          </mxGeometry>
        </mxCell>
        <mxCell id="ROuhm1Z8IePvhmxPEdWH-11" value="" style="endArrow=classic;html=1;rounded=0;fillColor=#dae8fc;strokeColor=#FF3333;startArrow=none;startFill=0;fontFamily=Times New Roman;fontSize=15;fontStyle=0" edge="1" parent="1">
          <mxGeometry width="50" height="50" relative="1" as="geometry">
            <mxPoint x="110" y="431" as="sourcePoint" />
            <mxPoint x="210" y="471" as="targetPoint" />
          </mxGeometry>
        </mxCell>
        <mxCell id="ROuhm1Z8IePvhmxPEdWH-12" value="" style="endArrow=classic;html=1;rounded=0;fillColor=#dae8fc;strokeColor=#FF3333;startArrow=none;startFill=0;fontFamily=Times New Roman;fontSize=15;fontStyle=0" edge="1" parent="1">
          <mxGeometry width="50" height="50" relative="1" as="geometry">
            <mxPoint x="110" y="430" as="sourcePoint" />
            <mxPoint x="210" y="510" as="targetPoint" />
          </mxGeometry>
        </mxCell>
        <mxCell id="ROuhm1Z8IePvhmxPEdWH-13" value="" style="endArrow=classic;html=1;rounded=0;fillColor=#dae8fc;strokeColor=#FF3333;startArrow=none;startFill=0;fontFamily=Times New Roman;fontSize=15;fontStyle=0" edge="1" parent="1">
          <mxGeometry width="50" height="50" relative="1" as="geometry">
            <mxPoint x="110" y="430" as="sourcePoint" />
            <mxPoint x="210" y="550" as="targetPoint" />
          </mxGeometry>
        </mxCell>
        <mxCell id="ROuhm1Z8IePvhmxPEdWH-14" value="Propose" style="text;html=1;align=center;verticalAlign=middle;resizable=0;points=[];autosize=1;strokeColor=none;fillColor=none;fontFamily=Times New Roman;fontSize=15;fontStyle=1;fontColor=#FF3333;" vertex="1" parent="1">
          <mxGeometry x="124" y="391.5" width="70" height="30" as="geometry" />
        </mxCell>
        <mxCell id="ROuhm1Z8IePvhmxPEdWH-15" value="Vote" style="text;html=1;align=center;verticalAlign=middle;resizable=0;points=[];autosize=1;strokeColor=none;fillColor=none;fontFamily=Times New Roman;fontSize=15;fontStyle=1;fontColor=#3399FF;" vertex="1" parent="1">
          <mxGeometry x="235" y="391" width="50" height="30" as="geometry" />
        </mxCell>
        <mxCell id="ROuhm1Z8IePvhmxPEdWH-16" value="Finalize" style="text;html=1;align=center;verticalAlign=middle;resizable=0;points=[];autosize=1;strokeColor=none;fillColor=none;fontFamily=Times New Roman;fontSize=15;fontStyle=1;fontColor=#00FF00;" vertex="1" parent="1">
          <mxGeometry x="325" y="391" width="70" height="30" as="geometry" />
        </mxCell>
        <mxCell id="ROuhm1Z8IePvhmxPEdWH-17" value="" style="endArrow=classic;html=1;rounded=0;fillColor=#dae8fc;strokeColor=#3399FF;startArrow=none;startFill=0;fontFamily=Times New Roman;fontSize=15;fontStyle=0" edge="1" parent="1">
          <mxGeometry width="50" height="50" relative="1" as="geometry">
            <mxPoint x="210" y="470" as="sourcePoint" />
            <mxPoint x="310" y="430" as="targetPoint" />
          </mxGeometry>
        </mxCell>
        <mxCell id="ROuhm1Z8IePvhmxPEdWH-18" value="" style="endArrow=classic;html=1;rounded=0;fillColor=#dae8fc;strokeColor=#3399FF;startArrow=none;startFill=0;fontFamily=Times New Roman;fontSize=15;fontStyle=0" edge="1" parent="1">
          <mxGeometry width="50" height="50" relative="1" as="geometry">
            <mxPoint x="210" y="470" as="sourcePoint" />
            <mxPoint x="310" y="550" as="targetPoint" />
          </mxGeometry>
        </mxCell>
        <mxCell id="ROuhm1Z8IePvhmxPEdWH-19" value="" style="endArrow=classic;html=1;rounded=0;fillColor=#dae8fc;strokeColor=#3399FF;startArrow=none;startFill=0;fontFamily=Times New Roman;fontSize=15;fontStyle=0" edge="1" parent="1">
          <mxGeometry width="50" height="50" relative="1" as="geometry">
            <mxPoint x="210" y="550" as="sourcePoint" />
            <mxPoint x="310" y="510" as="targetPoint" />
          </mxGeometry>
        </mxCell>
        <mxCell id="ROuhm1Z8IePvhmxPEdWH-20" value="" style="endArrow=classic;html=1;rounded=0;fillColor=#dae8fc;strokeColor=#3399FF;startArrow=none;startFill=0;fontFamily=Times New Roman;fontSize=15;fontStyle=0" edge="1" parent="1">
          <mxGeometry width="50" height="50" relative="1" as="geometry">
            <mxPoint x="210" y="550" as="sourcePoint" />
            <mxPoint x="310" y="430" as="targetPoint" />
          </mxGeometry>
        </mxCell>
        <mxCell id="ROuhm1Z8IePvhmxPEdWH-21" value="" style="endArrow=classic;html=1;rounded=0;fillColor=#dae8fc;strokeColor=#3399FF;startArrow=none;startFill=0;fontFamily=Times New Roman;fontSize=15;fontStyle=0" edge="1" parent="1">
          <mxGeometry width="50" height="50" relative="1" as="geometry">
            <mxPoint x="210" y="510" as="sourcePoint" />
            <mxPoint x="310" y="470" as="targetPoint" />
          </mxGeometry>
        </mxCell>
        <mxCell id="ROuhm1Z8IePvhmxPEdWH-22" value="" style="endArrow=classic;html=1;rounded=0;fillColor=#dae8fc;strokeColor=#3399FF;startArrow=none;startFill=0;fontFamily=Times New Roman;fontSize=15;fontStyle=0" edge="1" parent="1">
          <mxGeometry width="50" height="50" relative="1" as="geometry">
            <mxPoint x="210" y="510" as="sourcePoint" />
            <mxPoint x="310" y="550" as="targetPoint" />
          </mxGeometry>
        </mxCell>
        <mxCell id="ROuhm1Z8IePvhmxPEdWH-23" value="" style="endArrow=classic;html=1;rounded=0;fillColor=#dae8fc;strokeColor=#00FF00;startArrow=none;startFill=0;fontFamily=Times New Roman;fontSize=15;fontStyle=0" edge="1" parent="1">
          <mxGeometry width="50" height="50" relative="1" as="geometry">
            <mxPoint x="310" y="430" as="sourcePoint" />
            <mxPoint x="410" y="550" as="targetPoint" />
          </mxGeometry>
        </mxCell>
        <mxCell id="ROuhm1Z8IePvhmxPEdWH-24" value="" style="endArrow=classic;html=1;rounded=0;fillColor=#dae8fc;strokeColor=#00FF00;startArrow=none;startFill=0;fontFamily=Times New Roman;fontSize=15;fontStyle=0" edge="1" parent="1">
          <mxGeometry width="50" height="50" relative="1" as="geometry">
            <mxPoint x="310" y="430" as="sourcePoint" />
            <mxPoint x="410" y="511" as="targetPoint" />
          </mxGeometry>
        </mxCell>
        <mxCell id="ROuhm1Z8IePvhmxPEdWH-25" value="" style="endArrow=classic;html=1;rounded=0;fillColor=#dae8fc;strokeColor=#00FF00;startArrow=none;startFill=0;fontFamily=Times New Roman;fontSize=15;fontStyle=0" edge="1" parent="1">
          <mxGeometry width="50" height="50" relative="1" as="geometry">
            <mxPoint x="310" y="470" as="sourcePoint" />
            <mxPoint x="410" y="430" as="targetPoint" />
          </mxGeometry>
        </mxCell>
        <mxCell id="ROuhm1Z8IePvhmxPEdWH-26" value="" style="endArrow=classic;html=1;rounded=0;fillColor=#dae8fc;strokeColor=#00FF00;startArrow=none;startFill=0;fontFamily=Times New Roman;fontSize=15;fontStyle=0" edge="1" parent="1">
          <mxGeometry width="50" height="50" relative="1" as="geometry">
            <mxPoint x="310" y="470" as="sourcePoint" />
            <mxPoint x="410" y="510" as="targetPoint" />
          </mxGeometry>
        </mxCell>
        <mxCell id="ROuhm1Z8IePvhmxPEdWH-27" value="" style="endArrow=classic;html=1;rounded=0;fillColor=#dae8fc;strokeColor=#00FF00;startArrow=none;startFill=0;fontFamily=Times New Roman;fontSize=15;fontStyle=0" edge="1" parent="1">
          <mxGeometry width="50" height="50" relative="1" as="geometry">
            <mxPoint x="310" y="510" as="sourcePoint" />
            <mxPoint x="410" y="470" as="targetPoint" />
          </mxGeometry>
        </mxCell>
        <mxCell id="ROuhm1Z8IePvhmxPEdWH-28" value="" style="endArrow=classic;html=1;rounded=0;fillColor=#dae8fc;strokeColor=#00FF00;startArrow=none;startFill=0;fontFamily=Times New Roman;fontSize=15;fontStyle=0" edge="1" parent="1">
          <mxGeometry width="50" height="50" relative="1" as="geometry">
            <mxPoint x="310" y="510" as="sourcePoint" />
            <mxPoint x="410" y="550" as="targetPoint" />
          </mxGeometry>
        </mxCell>
        <mxCell id="ROuhm1Z8IePvhmxPEdWH-29" value="" style="endArrow=classic;html=1;rounded=0;fillColor=#dae8fc;strokeColor=#00FF00;startArrow=none;startFill=0;fontFamily=Times New Roman;fontSize=15;fontStyle=0" edge="1" parent="1">
          <mxGeometry width="50" height="50" relative="1" as="geometry">
            <mxPoint x="310" y="550" as="sourcePoint" />
            <mxPoint x="410" y="470" as="targetPoint" />
          </mxGeometry>
        </mxCell>
        <mxCell id="ROuhm1Z8IePvhmxPEdWH-30" value="" style="endArrow=classic;html=1;rounded=0;fillColor=#dae8fc;strokeColor=#00FF00;startArrow=none;startFill=0;fontFamily=Times New Roman;fontSize=15;fontStyle=0" edge="1" parent="1">
          <mxGeometry width="50" height="50" relative="1" as="geometry">
            <mxPoint x="310" y="550" as="sourcePoint" />
            <mxPoint x="410" y="470" as="targetPoint" />
          </mxGeometry>
        </mxCell>
        <mxCell id="ROuhm1Z8IePvhmxPEdWH-31" value="Node 2" style="text;html=1;align=center;verticalAlign=middle;resizable=0;points=[];autosize=1;strokeColor=none;fillColor=none;fontFamily=Times New Roman;fontStyle=0;fontSize=15;" vertex="1" parent="1">
          <mxGeometry x="45" y="450" width="70" height="30" as="geometry" />
        </mxCell>
        <mxCell id="ROuhm1Z8IePvhmxPEdWH-32" value="Node 3" style="text;html=1;align=center;verticalAlign=middle;resizable=0;points=[];autosize=1;strokeColor=none;fillColor=none;fontFamily=Times New Roman;fontStyle=0;fontSize=15;" vertex="1" parent="1">
          <mxGeometry x="45" y="490" width="70" height="30" as="geometry" />
        </mxCell>
        <mxCell id="ROuhm1Z8IePvhmxPEdWH-33" value="Node 4" style="text;html=1;align=center;verticalAlign=middle;resizable=0;points=[];autosize=1;strokeColor=none;fillColor=none;fontFamily=Times New Roman;fontStyle=0;fontSize=15;" vertex="1" parent="1">
          <mxGeometry x="45" y="530" width="70" height="30" as="geometry" />
        </mxCell>
        <mxCell id="ROuhm1Z8IePvhmxPEdWH-36" value="" style="endArrow=classic;html=1;rounded=0;fillColor=#dae8fc;strokeColor=#00FF00;startArrow=none;startFill=0;fontFamily=Times New Roman;fontSize=15;fontStyle=0" edge="1" parent="1">
          <mxGeometry width="50" height="50" relative="1" as="geometry">
            <mxPoint x="310" y="550" as="sourcePoint" />
            <mxPoint x="410" y="430" as="targetPoint" />
          </mxGeometry>
        </mxCell>
        <mxCell id="ROuhm1Z8IePvhmxPEdWH-40" value="" style="endArrow=none;dashed=1;html=1;rounded=0;strokeWidth=1;fontFamily=Times New Roman;fontSize=15;fontStyle=0" edge="1" parent="1">
          <mxGeometry width="50" height="50" relative="1" as="geometry">
            <mxPoint x="310" y="550" as="sourcePoint" />
            <mxPoint x="310" y="330" as="targetPoint" />
          </mxGeometry>
        </mxCell>
        <mxCell id="ROuhm1Z8IePvhmxPEdWH-55" value="" style="endArrow=none;dashed=1;html=1;rounded=0;strokeWidth=1;fontFamily=Times New Roman;fontSize=15;fontStyle=0" edge="1" parent="1">
          <mxGeometry width="50" height="50" relative="1" as="geometry">
            <mxPoint x="409.5" y="560" as="sourcePoint" />
            <mxPoint x="409.5" y="389" as="targetPoint" />
          </mxGeometry>
        </mxCell>
        <mxCell id="ROuhm1Z8IePvhmxPEdWH-57" value="" style="endArrow=none;html=1;rounded=0;strokeWidth=2;startArrow=none;startFill=0;strokeColor=default;fontFamily=Times New Roman;fontSize=15;fontStyle=1" edge="1" parent="1">
          <mxGeometry width="50" height="50" relative="1" as="geometry">
            <mxPoint x="410" y="430" as="sourcePoint" />
            <mxPoint x="710" y="430" as="targetPoint" />
          </mxGeometry>
        </mxCell>
        <mxCell id="ROuhm1Z8IePvhmxPEdWH-58" value="" style="endArrow=none;html=1;rounded=0;strokeWidth=2;startArrow=none;startFill=0;strokeColor=default;fontFamily=Times New Roman;fontSize=15;fontStyle=0" edge="1" parent="1">
          <mxGeometry width="50" height="50" relative="1" as="geometry">
            <mxPoint x="410" y="469.71000000000004" as="sourcePoint" />
            <mxPoint x="710" y="469.71000000000004" as="targetPoint" />
          </mxGeometry>
        </mxCell>
        <mxCell id="ROuhm1Z8IePvhmxPEdWH-59" value="" style="endArrow=none;html=1;rounded=0;strokeWidth=2;startArrow=none;startFill=0;strokeColor=default;fontFamily=Times New Roman;fontSize=15;fontStyle=0" edge="1" parent="1">
          <mxGeometry width="50" height="50" relative="1" as="geometry">
            <mxPoint x="410" y="510" as="sourcePoint" />
            <mxPoint x="710" y="510" as="targetPoint" />
          </mxGeometry>
        </mxCell>
        <mxCell id="ROuhm1Z8IePvhmxPEdWH-60" value="" style="endArrow=none;html=1;rounded=0;strokeWidth=2;startArrow=none;startFill=0;strokeColor=default;fontFamily=Times New Roman;fontSize=15;fontStyle=0" edge="1" parent="1">
          <mxGeometry width="50" height="50" relative="1" as="geometry">
            <mxPoint x="410" y="550" as="sourcePoint" />
            <mxPoint x="710" y="550" as="targetPoint" />
          </mxGeometry>
        </mxCell>
        <mxCell id="ROuhm1Z8IePvhmxPEdWH-61" value="" style="endArrow=classic;html=1;rounded=0;fillColor=#dae8fc;strokeColor=#FF3333;startArrow=none;startFill=0;fontFamily=Times New Roman;fontSize=15;fontStyle=0" edge="1" parent="1">
          <mxGeometry width="50" height="50" relative="1" as="geometry">
            <mxPoint x="310" y="431" as="sourcePoint" />
            <mxPoint x="410" y="471" as="targetPoint" />
          </mxGeometry>
        </mxCell>
        <mxCell id="ROuhm1Z8IePvhmxPEdWH-62" value="" style="endArrow=classic;html=1;rounded=0;fillColor=#dae8fc;strokeColor=#FF3333;startArrow=none;startFill=0;fontFamily=Times New Roman;fontSize=15;fontStyle=0" edge="1" parent="1">
          <mxGeometry width="50" height="50" relative="1" as="geometry">
            <mxPoint x="310" y="430" as="sourcePoint" />
            <mxPoint x="410" y="510" as="targetPoint" />
          </mxGeometry>
        </mxCell>
        <mxCell id="ROuhm1Z8IePvhmxPEdWH-63" value="" style="endArrow=classic;html=1;rounded=0;fillColor=#dae8fc;strokeColor=#FF3333;startArrow=none;startFill=0;fontFamily=Times New Roman;fontSize=15;fontStyle=0" edge="1" parent="1">
          <mxGeometry width="50" height="50" relative="1" as="geometry">
            <mxPoint x="310" y="430" as="sourcePoint" />
            <mxPoint x="410" y="550" as="targetPoint" />
          </mxGeometry>
        </mxCell>
        <mxCell id="ROuhm1Z8IePvhmxPEdWH-64" value="Propose" style="text;html=1;align=center;verticalAlign=middle;resizable=0;points=[];autosize=1;strokeColor=none;fillColor=none;fontFamily=Times New Roman;fontSize=15;fontStyle=1;fontColor=#FF3333;" vertex="1" parent="1">
          <mxGeometry x="325" y="370" width="70" height="30" as="geometry" />
        </mxCell>
        <mxCell id="ROuhm1Z8IePvhmxPEdWH-67" value="" style="endArrow=classic;html=1;rounded=0;fillColor=#dae8fc;strokeColor=#3399FF;startArrow=none;startFill=0;fontFamily=Times New Roman;fontSize=15;fontStyle=0" edge="1" parent="1">
          <mxGeometry width="50" height="50" relative="1" as="geometry">
            <mxPoint x="410" y="470" as="sourcePoint" />
            <mxPoint x="510" y="430" as="targetPoint" />
          </mxGeometry>
        </mxCell>
        <mxCell id="ROuhm1Z8IePvhmxPEdWH-68" value="" style="endArrow=classic;html=1;rounded=0;fillColor=#dae8fc;strokeColor=#3399FF;startArrow=none;startFill=0;fontFamily=Times New Roman;fontSize=15;fontStyle=0" edge="1" parent="1">
          <mxGeometry width="50" height="50" relative="1" as="geometry">
            <mxPoint x="410" y="470" as="sourcePoint" />
            <mxPoint x="510" y="550" as="targetPoint" />
          </mxGeometry>
        </mxCell>
        <mxCell id="ROuhm1Z8IePvhmxPEdWH-69" value="" style="endArrow=classic;html=1;rounded=0;fillColor=#dae8fc;strokeColor=#3399FF;startArrow=none;startFill=0;fontFamily=Times New Roman;fontSize=15;fontStyle=0" edge="1" parent="1">
          <mxGeometry width="50" height="50" relative="1" as="geometry">
            <mxPoint x="410" y="550" as="sourcePoint" />
            <mxPoint x="510" y="510" as="targetPoint" />
          </mxGeometry>
        </mxCell>
        <mxCell id="ROuhm1Z8IePvhmxPEdWH-70" value="" style="endArrow=classic;html=1;rounded=0;fillColor=#dae8fc;strokeColor=#3399FF;startArrow=none;startFill=0;fontFamily=Times New Roman;fontSize=15;fontStyle=0" edge="1" parent="1">
          <mxGeometry width="50" height="50" relative="1" as="geometry">
            <mxPoint x="410" y="550" as="sourcePoint" />
            <mxPoint x="510" y="430" as="targetPoint" />
          </mxGeometry>
        </mxCell>
        <mxCell id="ROuhm1Z8IePvhmxPEdWH-71" value="" style="endArrow=classic;html=1;rounded=0;fillColor=#dae8fc;strokeColor=#3399FF;startArrow=none;startFill=0;fontFamily=Times New Roman;fontSize=15;fontStyle=0" edge="1" parent="1">
          <mxGeometry width="50" height="50" relative="1" as="geometry">
            <mxPoint x="410" y="510" as="sourcePoint" />
            <mxPoint x="510" y="470" as="targetPoint" />
          </mxGeometry>
        </mxCell>
        <mxCell id="ROuhm1Z8IePvhmxPEdWH-72" value="" style="endArrow=classic;html=1;rounded=0;fillColor=#dae8fc;strokeColor=#3399FF;startArrow=none;startFill=0;fontFamily=Times New Roman;fontSize=15;fontStyle=0" edge="1" parent="1">
          <mxGeometry width="50" height="50" relative="1" as="geometry">
            <mxPoint x="410" y="510" as="sourcePoint" />
            <mxPoint x="510" y="550" as="targetPoint" />
          </mxGeometry>
        </mxCell>
        <mxCell id="ROuhm1Z8IePvhmxPEdWH-82" value="" style="endArrow=none;dashed=1;html=1;rounded=0;strokeWidth=1;fontFamily=Times New Roman;fontSize=15;fontStyle=0" edge="1" parent="1">
          <mxGeometry width="50" height="50" relative="1" as="geometry">
            <mxPoint x="510" y="560" as="sourcePoint" />
            <mxPoint x="510" y="340" as="targetPoint" />
          </mxGeometry>
        </mxCell>
        <mxCell id="ROuhm1Z8IePvhmxPEdWH-124" value="" style="endArrow=none;dashed=1;html=1;rounded=0;strokeWidth=1;fontFamily=Times New Roman;fontSize=15;fontStyle=0" edge="1" parent="1">
          <mxGeometry width="50" height="50" relative="1" as="geometry">
            <mxPoint x="110" y="560" as="sourcePoint" />
            <mxPoint x="110" y="340" as="targetPoint" />
          </mxGeometry>
        </mxCell>
        <mxCell id="ROuhm1Z8IePvhmxPEdWH-128" value="Iteration 1" style="text;html=1;align=center;verticalAlign=middle;resizable=0;points=[];autosize=1;strokeColor=none;fillColor=none;fontFamily=Times New Roman;fontSize=15;fontStyle=1" vertex="1" parent="1">
          <mxGeometry x="165" y="340" width="90" height="30" as="geometry" />
        </mxCell>
        <mxCell id="ROuhm1Z8IePvhmxPEdWH-129" value="Iteration&amp;nbsp;2" style="text;html=1;align=center;verticalAlign=middle;resizable=0;points=[];autosize=1;strokeColor=none;fillColor=none;fontFamily=Times New Roman;fontSize=15;fontStyle=1" vertex="1" parent="1">
          <mxGeometry x="365" y="340" width="90" height="30" as="geometry" />
        </mxCell>
        <mxCell id="ROuhm1Z8IePvhmxPEdWH-130" value="Iteration&amp;nbsp;3" style="text;html=1;align=center;verticalAlign=middle;resizable=0;points=[];autosize=1;strokeColor=none;fillColor=none;fontFamily=Times New Roman;fontSize=15;fontStyle=1" vertex="1" parent="1">
          <mxGeometry x="565" y="340" width="90" height="30" as="geometry" />
        </mxCell>
        <mxCell id="ROuhm1Z8IePvhmxPEdWH-133" value="" style="rounded=1;whiteSpace=wrap;html=1;fillColor=#FFFFFF;strokeColor=default;strokeWidth=1;fontFamily=Times New Roman;fontStyle=0;fontSize=15;" vertex="1" parent="1">
          <mxGeometry x="250" y="210" width="110" height="110" as="geometry" />
        </mxCell>
        <mxCell id="ROuhm1Z8IePvhmxPEdWH-134" value="&lt;div&gt;&lt;br&gt;&lt;/div&gt;&lt;br&gt;&lt;div&gt;iter: 1&lt;br&gt;lenght: 1&lt;div&gt;&lt;br&gt;&lt;div&gt;&lt;br&gt;&lt;/div&gt;&lt;/div&gt;&lt;/div&gt;" style="rounded=1;whiteSpace=wrap;html=1;fillColor=#FFFFFF;strokeColor=default;strokeWidth=1;fontFamily=Times New Roman;fontStyle=0;fontSize=15;" vertex="1" parent="1">
          <mxGeometry x="260" y="218.75" width="90" height="92.5" as="geometry" />
        </mxCell>
        <mxCell id="ROuhm1Z8IePvhmxPEdWH-135" value="" style="rounded=1;whiteSpace=wrap;html=1;fillColor=#FFFFFF;strokeColor=default;strokeWidth=1;fontFamily=Times New Roman;fontStyle=0;fontSize=15;" vertex="1" parent="1">
          <mxGeometry x="455" y="210" width="110" height="110" as="geometry" />
        </mxCell>
        <mxCell id="ROuhm1Z8IePvhmxPEdWH-136" value="&lt;div&gt;&lt;span style=&quot;background-color: transparent; color: light-dark(rgb(0, 0, 0), rgb(255, 255, 255));&quot;&gt;&lt;br&gt;&lt;/span&gt;&lt;/div&gt;&lt;div&gt;&lt;span style=&quot;background-color: transparent; color: light-dark(rgb(0, 0, 0), rgb(255, 255, 255));&quot;&gt;&lt;br&gt;&lt;/span&gt;&lt;/div&gt;&lt;div&gt;&lt;span style=&quot;background-color: transparent; color: light-dark(rgb(0, 0, 0), rgb(255, 255, 255));&quot;&gt;iter: 2&lt;/span&gt;&lt;/div&gt;&lt;div&gt;lenght: 2&lt;div&gt;&lt;br&gt;&lt;div&gt;&lt;br&gt;&lt;/div&gt;&lt;/div&gt;&lt;/div&gt;" style="rounded=1;whiteSpace=wrap;html=1;fillColor=#FFFFFF;strokeColor=default;strokeWidth=1;fontFamily=Times New Roman;fontStyle=0;fontSize=15;" vertex="1" parent="1">
          <mxGeometry x="465" y="220" width="90" height="92.5" as="geometry" />
        </mxCell>
        <mxCell id="ROuhm1Z8IePvhmxPEdWH-137" value="" style="endArrow=none;html=1;rounded=0;exitX=0;exitY=0.25;exitDx=0;exitDy=0;entryX=1;entryY=0.25;entryDx=0;entryDy=0;fontStyle=1;fontSize=15;elbow=vertical;strokeWidth=1;" edge="1" parent="1" source="ROuhm1Z8IePvhmxPEdWH-134" target="ROuhm1Z8IePvhmxPEdWH-134">
          <mxGeometry width="50" height="50" relative="1" as="geometry">
            <mxPoint x="640" y="300" as="sourcePoint" />
            <mxPoint x="690" y="250" as="targetPoint" />
          </mxGeometry>
        </mxCell>
        <mxCell id="ROuhm1Z8IePvhmxPEdWH-138" value="" style="endArrow=none;html=1;rounded=0;exitX=0;exitY=0.25;exitDx=0;exitDy=0;entryX=1;entryY=0.25;entryDx=0;entryDy=0;fontStyle=1;fontSize=15;strokeWidth=1;" edge="1" parent="1" source="ROuhm1Z8IePvhmxPEdWH-136" target="ROuhm1Z8IePvhmxPEdWH-136">
          <mxGeometry width="50" height="50" relative="1" as="geometry">
            <mxPoint x="545" y="300" as="sourcePoint" />
            <mxPoint x="595" y="250" as="targetPoint" />
          </mxGeometry>
        </mxCell>
        <mxCell id="ROuhm1Z8IePvhmxPEdWH-123" value="" style="endArrow=classic;html=1;rounded=1;strokeWidth=1;fontFamily=Times New Roman;fontStyle=0;strokeColor=default;exitX=-0.006;exitY=0.858;exitDx=0;exitDy=0;entryX=0.983;entryY=0.105;entryDx=0;entryDy=0;entryPerimeter=0;fontSize=15;exitPerimeter=0;curved=0;dashed=1;" edge="1" parent="1" source="ROuhm1Z8IePvhmxPEdWH-136" target="ROuhm1Z8IePvhmxPEdWH-134">
          <mxGeometry width="50" height="50" relative="1" as="geometry">
            <mxPoint x="645" y="230" as="sourcePoint" />
            <mxPoint x="510" y="270" as="targetPoint" />
          </mxGeometry>
        </mxCell>
        <mxCell id="ROuhm1Z8IePvhmxPEdWH-139" value="" style="rounded=1;whiteSpace=wrap;html=1;fillColor=#FFFFFF;strokeColor=default;strokeWidth=1;fontFamily=Times New Roman;fontStyle=0;fontSize=15;" vertex="1" parent="1">
          <mxGeometry x="60" y="210" width="110" height="110" as="geometry" />
        </mxCell>
        <mxCell id="ROuhm1Z8IePvhmxPEdWH-140" value="&lt;div&gt;&lt;br&gt;&lt;/div&gt;" style="rounded=1;whiteSpace=wrap;html=1;fillColor=#FFFFFF;strokeColor=default;strokeWidth=1;fontFamily=Times New Roman;fontStyle=0;fontSize=15;" vertex="1" parent="1">
          <mxGeometry x="70" y="220" width="90" height="92.5" as="geometry" />
        </mxCell>
        <mxCell id="ROuhm1Z8IePvhmxPEdWH-143" value="" style="endArrow=classic;html=1;rounded=1;strokeWidth=1;fontFamily=Times New Roman;fontStyle=0;strokeColor=default;exitX=0.004;exitY=0.84;exitDx=0;exitDy=0;entryX=1.013;entryY=0.162;entryDx=0;entryDy=0;entryPerimeter=0;fontSize=15;exitPerimeter=0;curved=0;dashed=1;" edge="1" parent="1" source="ROuhm1Z8IePvhmxPEdWH-134" target="ROuhm1Z8IePvhmxPEdWH-140">
          <mxGeometry width="50" height="50" relative="1" as="geometry">
            <mxPoint x="371" y="303" as="sourcePoint" />
            <mxPoint x="160" y="257" as="targetPoint" />
          </mxGeometry>
        </mxCell>
        <mxCell id="ROuhm1Z8IePvhmxPEdWH-144" value="" style="rounded=1;whiteSpace=wrap;html=1;fillColor=#FFFFFF;strokeColor=default;strokeWidth=1;fontFamily=Times New Roman;fontStyle=0;fontSize=15;" vertex="1" parent="1">
          <mxGeometry x="655" y="210" width="110" height="110" as="geometry" />
        </mxCell>
        <mxCell id="ROuhm1Z8IePvhmxPEdWH-145" value="&lt;div&gt;&lt;span style=&quot;background-color: transparent; color: light-dark(rgb(0, 0, 0), rgb(255, 255, 255));&quot;&gt;&lt;br&gt;&lt;/span&gt;&lt;/div&gt;&lt;div&gt;&lt;span style=&quot;background-color: transparent; color: light-dark(rgb(0, 0, 0), rgb(255, 255, 255));&quot;&gt;&lt;br&gt;&lt;/span&gt;&lt;/div&gt;&lt;div&gt;&lt;span style=&quot;background-color: transparent; color: light-dark(rgb(0, 0, 0), rgb(255, 255, 255));&quot;&gt;iter: 3&lt;/span&gt;&lt;/div&gt;&lt;div&gt;&lt;span style=&quot;background-color: transparent; color: light-dark(rgb(0, 0, 0), rgb(255, 255, 255));&quot;&gt;lenght: 3&lt;/span&gt;&lt;/div&gt;&lt;div&gt;&lt;div&gt;&lt;br&gt;&lt;div&gt;&lt;br&gt;&lt;/div&gt;&lt;/div&gt;&lt;/div&gt;" style="rounded=1;whiteSpace=wrap;html=1;fillColor=#FFFFFF;strokeColor=default;strokeWidth=1;fontFamily=Times New Roman;fontStyle=0;fontSize=15;" vertex="1" parent="1">
          <mxGeometry x="665" y="220" width="90" height="92.5" as="geometry" />
        </mxCell>
        <mxCell id="ROuhm1Z8IePvhmxPEdWH-146" value="" style="endArrow=none;html=1;rounded=0;exitX=0;exitY=0.25;exitDx=0;exitDy=0;entryX=1;entryY=0.25;entryDx=0;entryDy=0;fontStyle=1;fontSize=15;strokeWidth=1;" edge="1" parent="1" source="ROuhm1Z8IePvhmxPEdWH-145" target="ROuhm1Z8IePvhmxPEdWH-145">
          <mxGeometry width="50" height="50" relative="1" as="geometry">
            <mxPoint x="745" y="300" as="sourcePoint" />
            <mxPoint x="795" y="250" as="targetPoint" />
          </mxGeometry>
        </mxCell>
        <mxCell id="ROuhm1Z8IePvhmxPEdWH-147" value="" style="endArrow=classic;html=1;rounded=0;strokeWidth=1;fontFamily=Times New Roman;fontStyle=0;strokeColor=default;entryX=0.975;entryY=0.131;entryDx=0;entryDy=0;entryPerimeter=0;fontSize=15;exitX=0.004;exitY=0.822;exitDx=0;exitDy=0;exitPerimeter=0;dashed=1;" edge="1" parent="1" source="ROuhm1Z8IePvhmxPEdWH-145" target="ROuhm1Z8IePvhmxPEdWH-136">
          <mxGeometry width="50" height="50" relative="1" as="geometry">
            <mxPoint x="660" y="290" as="sourcePoint" />
            <mxPoint x="800" y="280" as="targetPoint" />
          </mxGeometry>
        </mxCell>
        <mxCell id="ROuhm1Z8IePvhmxPEdWH-149" value="Vote" style="text;html=1;align=center;verticalAlign=middle;resizable=0;points=[];autosize=1;strokeColor=none;fillColor=none;fontFamily=Times New Roman;fontSize=15;fontStyle=1;fontColor=#3399FF;" vertex="1" parent="1">
          <mxGeometry x="432" y="391" width="50" height="30" as="geometry" />
        </mxCell>
        <mxCell id="ROuhm1Z8IePvhmxPEdWH-150" value="" style="endArrow=none;dashed=1;html=1;rounded=0;strokeWidth=1;fontFamily=Times New Roman;fontSize=15;fontStyle=0" edge="1" parent="1">
          <mxGeometry width="50" height="50" relative="1" as="geometry">
            <mxPoint x="709.5" y="560" as="sourcePoint" />
            <mxPoint x="709.5" y="340" as="targetPoint" />
          </mxGeometry>
        </mxCell>
        <mxCell id="ROuhm1Z8IePvhmxPEdWH-152" value="" style="endArrow=none;dashed=1;html=1;rounded=0;strokeWidth=1;fontFamily=Times New Roman;fontSize=15;fontStyle=0" edge="1" parent="1">
          <mxGeometry width="50" height="50" relative="1" as="geometry">
            <mxPoint x="609.5" y="562" as="sourcePoint" />
            <mxPoint x="609.5" y="391" as="targetPoint" />
          </mxGeometry>
        </mxCell>
        <mxCell id="ROuhm1Z8IePvhmxPEdWH-153" value="" style="endArrow=none;dashed=1;html=1;rounded=0;strokeWidth=1;fontFamily=Times New Roman;fontSize=15;fontStyle=0" edge="1" parent="1">
          <mxGeometry width="50" height="50" relative="1" as="geometry">
            <mxPoint x="510" y="561" as="sourcePoint" />
            <mxPoint x="510" y="390" as="targetPoint" />
          </mxGeometry>
        </mxCell>
        <mxCell id="ROuhm1Z8IePvhmxPEdWH-154" value="Finalize" style="text;html=1;align=center;verticalAlign=middle;resizable=0;points=[];autosize=1;strokeColor=none;fillColor=none;fontFamily=Times New Roman;fontSize=15;fontStyle=1;fontColor=#00FF00;" vertex="1" parent="1">
          <mxGeometry x="525" y="391" width="70" height="30" as="geometry" />
        </mxCell>
        <mxCell id="ROuhm1Z8IePvhmxPEdWH-155" value="" style="endArrow=classic;html=1;rounded=0;fillColor=#dae8fc;strokeColor=#00FF00;startArrow=none;startFill=0;fontFamily=Times New Roman;fontSize=15;fontStyle=0" edge="1" parent="1">
          <mxGeometry width="50" height="50" relative="1" as="geometry">
            <mxPoint x="510" y="430" as="sourcePoint" />
            <mxPoint x="610" y="550" as="targetPoint" />
          </mxGeometry>
        </mxCell>
        <mxCell id="ROuhm1Z8IePvhmxPEdWH-156" value="" style="endArrow=classic;html=1;rounded=0;fillColor=#dae8fc;strokeColor=#00FF00;startArrow=none;startFill=0;fontFamily=Times New Roman;fontSize=15;fontStyle=0" edge="1" parent="1">
          <mxGeometry width="50" height="50" relative="1" as="geometry">
            <mxPoint x="510" y="430" as="sourcePoint" />
            <mxPoint x="610" y="511" as="targetPoint" />
          </mxGeometry>
        </mxCell>
        <mxCell id="ROuhm1Z8IePvhmxPEdWH-157" value="" style="endArrow=classic;html=1;rounded=0;fillColor=#dae8fc;strokeColor=#00FF00;startArrow=none;startFill=0;fontFamily=Times New Roman;fontSize=15;fontStyle=0" edge="1" parent="1">
          <mxGeometry width="50" height="50" relative="1" as="geometry">
            <mxPoint x="510" y="470" as="sourcePoint" />
            <mxPoint x="610" y="430" as="targetPoint" />
          </mxGeometry>
        </mxCell>
        <mxCell id="ROuhm1Z8IePvhmxPEdWH-158" value="" style="endArrow=classic;html=1;rounded=0;fillColor=#dae8fc;strokeColor=#00FF00;startArrow=none;startFill=0;fontFamily=Times New Roman;fontSize=15;fontStyle=0" edge="1" parent="1">
          <mxGeometry width="50" height="50" relative="1" as="geometry">
            <mxPoint x="510" y="470" as="sourcePoint" />
            <mxPoint x="610" y="510" as="targetPoint" />
          </mxGeometry>
        </mxCell>
        <mxCell id="ROuhm1Z8IePvhmxPEdWH-159" value="" style="endArrow=classic;html=1;rounded=0;fillColor=#dae8fc;strokeColor=#00FF00;startArrow=none;startFill=0;fontFamily=Times New Roman;fontSize=15;fontStyle=0" edge="1" parent="1">
          <mxGeometry width="50" height="50" relative="1" as="geometry">
            <mxPoint x="510" y="510" as="sourcePoint" />
            <mxPoint x="610" y="470" as="targetPoint" />
          </mxGeometry>
        </mxCell>
        <mxCell id="ROuhm1Z8IePvhmxPEdWH-160" value="" style="endArrow=classic;html=1;rounded=0;fillColor=#dae8fc;strokeColor=#00FF00;startArrow=none;startFill=0;fontFamily=Times New Roman;fontSize=15;fontStyle=0" edge="1" parent="1">
          <mxGeometry width="50" height="50" relative="1" as="geometry">
            <mxPoint x="510" y="510" as="sourcePoint" />
            <mxPoint x="610" y="550" as="targetPoint" />
          </mxGeometry>
        </mxCell>
        <mxCell id="ROuhm1Z8IePvhmxPEdWH-161" value="" style="endArrow=classic;html=1;rounded=0;fillColor=#dae8fc;strokeColor=#00FF00;startArrow=none;startFill=0;fontFamily=Times New Roman;fontSize=15;fontStyle=0" edge="1" parent="1">
          <mxGeometry width="50" height="50" relative="1" as="geometry">
            <mxPoint x="510" y="550" as="sourcePoint" />
            <mxPoint x="610" y="470" as="targetPoint" />
          </mxGeometry>
        </mxCell>
        <mxCell id="ROuhm1Z8IePvhmxPEdWH-162" value="" style="endArrow=classic;html=1;rounded=0;fillColor=#dae8fc;strokeColor=#00FF00;startArrow=none;startFill=0;fontFamily=Times New Roman;fontSize=15;fontStyle=0" edge="1" parent="1">
          <mxGeometry width="50" height="50" relative="1" as="geometry">
            <mxPoint x="510" y="550" as="sourcePoint" />
            <mxPoint x="610" y="470" as="targetPoint" />
          </mxGeometry>
        </mxCell>
        <mxCell id="ROuhm1Z8IePvhmxPEdWH-163" value="" style="endArrow=classic;html=1;rounded=0;fillColor=#dae8fc;strokeColor=#00FF00;startArrow=none;startFill=0;fontFamily=Times New Roman;fontSize=15;fontStyle=0" edge="1" parent="1">
          <mxGeometry width="50" height="50" relative="1" as="geometry">
            <mxPoint x="510" y="550" as="sourcePoint" />
            <mxPoint x="610" y="430" as="targetPoint" />
          </mxGeometry>
        </mxCell>
        <mxCell id="ROuhm1Z8IePvhmxPEdWH-164" value="" style="endArrow=none;dashed=1;html=1;rounded=0;strokeWidth=1;fontFamily=Times New Roman;fontSize=15;fontStyle=0" edge="1" parent="1">
          <mxGeometry width="50" height="50" relative="1" as="geometry">
            <mxPoint x="609.5" y="560" as="sourcePoint" />
            <mxPoint x="609.5" y="389" as="targetPoint" />
          </mxGeometry>
        </mxCell>
        <mxCell id="ROuhm1Z8IePvhmxPEdWH-165" value="" style="endArrow=classic;html=1;rounded=0;fillColor=#dae8fc;strokeColor=#FF3333;startArrow=none;startFill=0;fontFamily=Times New Roman;fontSize=15;fontStyle=0" edge="1" parent="1">
          <mxGeometry width="50" height="50" relative="1" as="geometry">
            <mxPoint x="510" y="431" as="sourcePoint" />
            <mxPoint x="610" y="471" as="targetPoint" />
          </mxGeometry>
        </mxCell>
        <mxCell id="ROuhm1Z8IePvhmxPEdWH-166" value="" style="endArrow=classic;html=1;rounded=0;fillColor=#dae8fc;strokeColor=#FF3333;startArrow=none;startFill=0;fontFamily=Times New Roman;fontSize=15;fontStyle=0" edge="1" parent="1">
          <mxGeometry width="50" height="50" relative="1" as="geometry">
            <mxPoint x="510" y="430" as="sourcePoint" />
            <mxPoint x="610" y="510" as="targetPoint" />
          </mxGeometry>
        </mxCell>
        <mxCell id="ROuhm1Z8IePvhmxPEdWH-167" value="" style="endArrow=classic;html=1;rounded=0;fillColor=#dae8fc;strokeColor=#FF3333;startArrow=none;startFill=0;fontFamily=Times New Roman;fontSize=15;fontStyle=0" edge="1" parent="1">
          <mxGeometry width="50" height="50" relative="1" as="geometry">
            <mxPoint x="510" y="430" as="sourcePoint" />
            <mxPoint x="610" y="550" as="targetPoint" />
          </mxGeometry>
        </mxCell>
        <mxCell id="ROuhm1Z8IePvhmxPEdWH-168" value="Propose" style="text;html=1;align=center;verticalAlign=middle;resizable=0;points=[];autosize=1;strokeColor=none;fillColor=none;fontFamily=Times New Roman;fontSize=15;fontStyle=1;fontColor=#FF3333;" vertex="1" parent="1">
          <mxGeometry x="525" y="370" width="70" height="30" as="geometry" />
        </mxCell>
        <mxCell id="ROuhm1Z8IePvhmxPEdWH-169" value="" style="endArrow=classic;html=1;rounded=0;fillColor=#dae8fc;strokeColor=#3399FF;startArrow=none;startFill=0;fontFamily=Times New Roman;fontSize=15;fontStyle=0" edge="1" parent="1">
          <mxGeometry width="50" height="50" relative="1" as="geometry">
            <mxPoint x="610" y="470" as="sourcePoint" />
            <mxPoint x="710" y="430" as="targetPoint" />
          </mxGeometry>
        </mxCell>
        <mxCell id="ROuhm1Z8IePvhmxPEdWH-170" value="" style="endArrow=classic;html=1;rounded=0;fillColor=#dae8fc;strokeColor=#3399FF;startArrow=none;startFill=0;fontFamily=Times New Roman;fontSize=15;fontStyle=0" edge="1" parent="1">
          <mxGeometry width="50" height="50" relative="1" as="geometry">
            <mxPoint x="610" y="470" as="sourcePoint" />
            <mxPoint x="710" y="550" as="targetPoint" />
          </mxGeometry>
        </mxCell>
        <mxCell id="ROuhm1Z8IePvhmxPEdWH-171" value="" style="endArrow=classic;html=1;rounded=0;fillColor=#dae8fc;strokeColor=#3399FF;startArrow=none;startFill=0;fontFamily=Times New Roman;fontSize=15;fontStyle=0" edge="1" parent="1">
          <mxGeometry width="50" height="50" relative="1" as="geometry">
            <mxPoint x="610" y="550" as="sourcePoint" />
            <mxPoint x="710" y="510" as="targetPoint" />
          </mxGeometry>
        </mxCell>
        <mxCell id="ROuhm1Z8IePvhmxPEdWH-172" value="" style="endArrow=classic;html=1;rounded=0;fillColor=#dae8fc;strokeColor=#3399FF;startArrow=none;startFill=0;fontFamily=Times New Roman;fontSize=15;fontStyle=0" edge="1" parent="1">
          <mxGeometry width="50" height="50" relative="1" as="geometry">
            <mxPoint x="610" y="550" as="sourcePoint" />
            <mxPoint x="710" y="430" as="targetPoint" />
          </mxGeometry>
        </mxCell>
        <mxCell id="ROuhm1Z8IePvhmxPEdWH-173" value="" style="endArrow=classic;html=1;rounded=0;fillColor=#dae8fc;strokeColor=#3399FF;startArrow=none;startFill=0;fontFamily=Times New Roman;fontSize=15;fontStyle=0" edge="1" parent="1">
          <mxGeometry width="50" height="50" relative="1" as="geometry">
            <mxPoint x="610" y="510" as="sourcePoint" />
            <mxPoint x="710" y="470" as="targetPoint" />
          </mxGeometry>
        </mxCell>
        <mxCell id="ROuhm1Z8IePvhmxPEdWH-174" value="" style="endArrow=classic;html=1;rounded=0;fillColor=#dae8fc;strokeColor=#3399FF;startArrow=none;startFill=0;fontFamily=Times New Roman;fontSize=15;fontStyle=0" edge="1" parent="1">
          <mxGeometry width="50" height="50" relative="1" as="geometry">
            <mxPoint x="610" y="510" as="sourcePoint" />
            <mxPoint x="710" y="550" as="targetPoint" />
          </mxGeometry>
        </mxCell>
        <mxCell id="ROuhm1Z8IePvhmxPEdWH-175" value="Vote" style="text;html=1;align=center;verticalAlign=middle;resizable=0;points=[];autosize=1;strokeColor=none;fillColor=none;fontFamily=Times New Roman;fontSize=15;fontStyle=1;fontColor=#3399FF;" vertex="1" parent="1">
          <mxGeometry x="632" y="391" width="50" height="30" as="geometry" />
        </mxCell>
        <mxCell id="ROuhm1Z8IePvhmxPEdWH-176" value="&lt;span style=&quot;font-family: &amp;quot;Times New Roman&amp;quot;; text-wrap-mode: wrap;&quot;&gt;&lt;font style=&quot;font-size: 26px;&quot;&gt;⊥&lt;/font&gt;&lt;/span&gt;" style="text;html=1;align=center;verticalAlign=middle;resizable=0;points=[];autosize=1;strokeColor=none;fillColor=none;strokeWidth=1;" vertex="1" parent="1">
          <mxGeometry x="95" y="260" width="40" height="40" as="geometry" />
        </mxCell>
        <mxCell id="ROuhm1Z8IePvhmxPEdWH-177" value="&lt;span style=&quot;font-family: &amp;quot;Times New Roman&amp;quot;; font-size: 15px; text-wrap-mode: wrap;&quot;&gt;Header&lt;/span&gt;" style="text;html=1;align=center;verticalAlign=middle;resizable=0;points=[];autosize=1;strokeColor=none;fillColor=none;fontStyle=1;strokeWidth=1;" vertex="1" parent="1">
          <mxGeometry x="270" y="217.5" width="70" height="30" as="geometry" />
        </mxCell>
        <mxCell id="ROuhm1Z8IePvhmxPEdWH-178" value="&lt;span style=&quot;font-family: &amp;quot;Times New Roman&amp;quot;; font-size: 15px; text-wrap-mode: wrap;&quot;&gt;Header&lt;/span&gt;" style="text;html=1;align=center;verticalAlign=middle;resizable=0;points=[];autosize=1;strokeColor=none;fillColor=none;fontStyle=1;strokeWidth=1;" vertex="1" parent="1">
          <mxGeometry x="475" y="217.5" width="70" height="30" as="geometry" />
        </mxCell>
        <mxCell id="ROuhm1Z8IePvhmxPEdWH-179" value="&lt;span style=&quot;font-family: &amp;quot;Times New Roman&amp;quot;; font-size: 15px; text-wrap-mode: wrap;&quot;&gt;Header&lt;/span&gt;" style="text;html=1;align=center;verticalAlign=middle;resizable=0;points=[];autosize=1;strokeColor=none;fillColor=none;fontStyle=1;strokeWidth=1;" vertex="1" parent="1">
          <mxGeometry x="675" y="217.5" width="70" height="30" as="geometry" />
        </mxCell>
        <mxCell id="ROuhm1Z8IePvhmxPEdWH-182" value="" style="endArrow=none;html=1;rounded=0;entryX=1;entryY=0.25;entryDx=0;entryDy=0;fontStyle=1;strokeWidth=1;" edge="1" parent="1" target="ROuhm1Z8IePvhmxPEdWH-140">
          <mxGeometry width="50" height="50" relative="1" as="geometry">
            <mxPoint x="70" y="243" as="sourcePoint" />
            <mxPoint x="135" y="150" as="targetPoint" />
          </mxGeometry>
        </mxCell>
        <mxCell id="ROuhm1Z8IePvhmxPEdWH-184" value="&lt;span style=&quot;font-family: &amp;quot;Times New Roman&amp;quot;; font-size: 15px; text-wrap-mode: wrap;&quot;&gt;Header&lt;/span&gt;" style="text;html=1;align=center;verticalAlign=middle;resizable=0;points=[];autosize=1;strokeColor=none;fillColor=none;fontStyle=1;strokeWidth=1;" vertex="1" parent="1">
          <mxGeometry x="80" y="217.5" width="70" height="30" as="geometry" />
        </mxCell>
        <mxCell id="ROuhm1Z8IePvhmxPEdWH-185" value="&lt;font face=&quot;Times New Roman&quot;&gt;&lt;span style=&quot;font-size: 15px; text-wrap-mode: wrap;&quot;&gt;hash&lt;/span&gt;&lt;/font&gt;" style="text;html=1;align=center;verticalAlign=middle;resizable=0;points=[];autosize=1;strokeColor=none;fillColor=none;strokeWidth=1;" vertex="1" parent="1">
          <mxGeometry x="485" y="282.5" width="50" height="30" as="geometry" />
        </mxCell>
        <mxCell id="ROuhm1Z8IePvhmxPEdWH-188" value="" style="endArrow=none;html=1;rounded=0;entryX=1;entryY=0.25;entryDx=0;entryDy=0;strokeWidth=1;" edge="1" parent="1">
          <mxGeometry width="50" height="50" relative="1" as="geometry">
            <mxPoint x="260" y="290" as="sourcePoint" />
            <mxPoint x="350" y="290" as="targetPoint" />
          </mxGeometry>
        </mxCell>
        <mxCell id="ROuhm1Z8IePvhmxPEdWH-189" value="" style="endArrow=none;html=1;rounded=0;entryX=1;entryY=0.25;entryDx=0;entryDy=0;strokeWidth=1;" edge="1" parent="1">
          <mxGeometry width="50" height="50" relative="1" as="geometry">
            <mxPoint x="465" y="290" as="sourcePoint" />
            <mxPoint x="555" y="290" as="targetPoint" />
          </mxGeometry>
        </mxCell>
        <mxCell id="ROuhm1Z8IePvhmxPEdWH-190" value="" style="endArrow=none;html=1;rounded=0;entryX=1;entryY=0.25;entryDx=0;entryDy=0;strokeWidth=1;" edge="1" parent="1">
          <mxGeometry width="50" height="50" relative="1" as="geometry">
            <mxPoint x="665" y="290" as="sourcePoint" />
            <mxPoint x="755" y="290" as="targetPoint" />
          </mxGeometry>
        </mxCell>
        <mxCell id="ROuhm1Z8IePvhmxPEdWH-194" value="&lt;font face=&quot;Times New Roman&quot;&gt;&lt;span style=&quot;font-size: 15px; text-wrap-mode: wrap;&quot;&gt;hash&lt;/span&gt;&lt;/font&gt;" style="text;html=1;align=center;verticalAlign=middle;resizable=0;points=[];autosize=1;strokeColor=none;fillColor=none;strokeWidth=1;" vertex="1" parent="1">
          <mxGeometry x="280" y="282.5" width="50" height="30" as="geometry" />
        </mxCell>
        <mxCell id="ROuhm1Z8IePvhmxPEdWH-195" value="&lt;font face=&quot;Times New Roman&quot;&gt;&lt;span style=&quot;font-size: 15px; text-wrap-mode: wrap;&quot;&gt;hash&lt;/span&gt;&lt;/font&gt;" style="text;html=1;align=center;verticalAlign=middle;resizable=0;points=[];autosize=1;strokeColor=none;fillColor=none;strokeWidth=1;" vertex="1" parent="1">
          <mxGeometry x="685" y="282.5" width="50" height="30" as="geometry" />
        </mxCell>
      </root>
    </mxGraphModel>
  </diagram>
</mxfile>
